<svg version="1.1" id="Layer_1" xmlns="http://www.w3.org/2000/svg" xmlns:xlink="http://www.w3.org/1999/xlink" x="0px" y="0px"
	 width="100%" viewBox="0 0 896 896" enable-background="new 0 0 896 896" xml:space="preserve">
<path fill="#000000" opacity="1.000000" stroke="none" 
	d="
M460.765015,226.955902 
	C486.352173,228.377670 510.829468,233.055573 534.068115,242.746979 
	C601.958557,271.059967 646.659790,320.419464 667.437195,391.142822 
	C674.882568,416.485931 677.275757,442.452606 675.153687,468.683105 
	C671.192932,517.641296 653.415344,561.126099 621.216003,598.321838 
	C586.111450,638.873596 541.772583,663.606995 489.042084,672.994751 
	C388.077484,690.969788 285.588379,635.345093 245.187531,541.188538 
	C231.072952,508.293701 223.966904,473.971069 227.004913,438.451477 
	C234.902496,346.114929 281.626495,280.717163 366.640320,243.451004 
	C396.345642,230.429581 427.911224,225.853348 460.765015,226.955902 
M627.295471,382.139984 
	C622.773682,371.189178 617.525879,360.618530 611.164612,350.599396 
	C570.367188,286.342682 496.698364,252.541031 420.763153,264.692169 
	C376.975311,271.699066 339.821533,291.971832 310.397614,325.214050 
	C269.914825,370.950195 254.617874,424.616943 264.828918,484.628784 
	C273.461761,535.365234 299.873138,575.887695 341.750793,605.840149 
	C381.546265,634.303406 426.224274,645.015686 474.628052,639.419922 
	C499.841248,636.505127 523.761963,628.680054 545.540039,615.423767 
	C606.138062,578.538025 637.804077,524.317017 640.467468,453.586731 
	C641.382507,429.286011 636.476929,405.596313 627.295471,382.139984 
z"/>
<path fill="#000000" opacity="1.000000" stroke="none" 
	d="
M697.847412,627.112122 
	C707.307312,636.099609 710.142639,646.792175 706.707397,658.784607 
	C703.481934,670.044800 695.830566,677.490601 684.268188,679.921875 
	C671.837646,682.535706 661.086670,679.037659 653.220764,668.772217 
	C645.669861,658.917786 644.553040,647.934326 649.900635,636.828125 
	C655.340393,625.530396 664.574219,619.643066 677.410217,619.596252 
	C685.109314,619.568176 691.749512,621.973389 697.847412,627.112122 
M696.520264,666.991699 
	C704.096252,657.416260 705.035767,645.894958 699.017517,636.366882 
	C693.265015,627.259460 682.425049,622.585571 672.294250,624.844421 
	C661.802429,627.183716 653.438599,635.989929 652.242798,645.956421 
	C650.793335,658.037231 656.040710,668.277893 666.294189,673.378784 
	C676.110291,678.262085 687.235718,676.067261 696.520264,666.991699 
z"/>
<path fill="#000000" opacity="1.000000" stroke="none" 
	d="
M376.634949,504.693542 
	C387.012878,485.617859 397.327911,466.917023 411.908569,451.075714 
	C423.207520,438.799805 435.154205,427.172821 448.931793,417.645508 
	C456.973541,412.084595 465.630463,408.542175 475.654785,411.750702 
	C476.689880,410.595612 475.538177,409.836578 475.256042,409.035217 
	C472.626495,401.565186 472.614868,401.684174 464.567596,402.513641 
	C451.324768,403.878662 438.068909,405.122284 424.811157,406.336060 
	C420.067932,406.770325 415.318054,407.771393 411.688782,410.688873 
	C398.359802,421.403625 383.469055,420.272430 367.945862,417.876770 
	C340.501801,413.641449 317.940369,399.444519 295.920746,383.918243 
	C295.242035,383.439667 294.581970,382.910919 294.004669,382.316681 
	C292.393677,380.658661 290.181854,379.020081 291.004852,376.432404 
	C291.777069,374.004333 294.511017,374.082062 296.541016,373.797028 
	C316.758453,370.958252 337.059357,371.389679 357.382416,372.303528 
	C380.182159,373.328735 402.778931,376.167816 425.292114,379.710510 
	C439.577972,381.958527 453.803955,384.588135 468.051392,387.077576 
	C469.661469,387.358887 471.248169,388.099487 473.939117,385.974548 
	C460.152649,380.565735 448.659698,373.087463 442.419556,358.198029 
	C451.573608,361.318390 454.265961,371.459869 463.196106,374.257080 
	C463.236267,363.967834 458.441559,355.381042 458.830261,345.871429 
	C461.914429,346.347534 462.015869,348.709778 462.631500,350.410248 
	C464.273560,354.946106 466.085388,359.494019 467.007629,364.198303 
	C468.152954,370.040314 471.923248,372.338593 478.327545,373.990662 
	C471.016785,361.437683 474.487427,349.693481 477.681610,337.261505 
	C479.634338,340.457855 480.754578,344.308716 478.923065,351.514557 
	C476.680878,360.336090 482.105530,365.593018 486.052002,371.751373 
	C486.837402,372.976990 488.014862,373.520569 489.510284,373.057312 
	C489.827728,372.958984 490.165894,372.925995 490.480957,372.821777 
	C494.303650,371.557281 499.235809,374.424316 502.005768,371.378357 
	C504.687103,368.429840 502.109314,363.771942 502.616364,359.867645 
	C502.925232,357.489624 503.463104,355.252136 504.788696,353.303650 
	C508.435120,347.943634 513.951294,344.423462 518.607544,340.121887 
	C522.555298,336.474884 527.956177,338.772583 532.388733,344.413177 
	C542.567993,333.968475 534.555237,324.121399 530.411377,314.687012 
	C532.116882,313.547913 533.114746,313.659454 533.557800,314.319336 
	C538.505493,321.688782 544.325317,329.341217 539.747253,338.589722 
	C536.025452,346.108429 536.110474,351.386993 543.966736,355.460693 
	C544.945312,355.968140 545.643738,357.065399 546.394348,357.954865 
	C551.826721,364.391937 551.820374,364.397278 559.869690,361.270386 
	C567.993164,358.114685 580.037292,360.528839 585.839966,366.460052 
	C586.564453,367.200500 587.315674,367.972839 586.677673,369.039490 
	C585.896545,370.345581 584.714294,370.050201 583.620300,369.462250 
	C581.713501,368.437500 579.860168,367.311951 577.942444,366.309082 
	C569.149292,361.710602 564.880127,361.974518 555.724792,367.880249 
	C557.109314,369.121124 558.611389,370.137024 559.684204,371.492676 
	C562.543823,375.106232 562.862244,380.721771 559.541016,383.376434 
	C555.835571,386.338287 553.331360,390.192749 550.097778,393.438354 
	C545.734070,397.818390 539.970398,398.019318 534.185852,397.387268 
	C531.897217,397.137238 529.623352,396.752167 527.164856,396.403351 
	C527.290161,401.393066 528.391724,406.350372 527.116516,411.275665 
	C526.901855,412.104828 526.799316,413.153503 527.568726,413.583984 
	C533.082458,416.669128 537.250671,422.551605 544.627258,421.799438 
	C548.767212,421.377350 552.912659,420.944580 557.066528,420.752350 
	C558.918884,420.666626 561.121948,420.023804 563.001221,423.008728 
	C550.745605,425.727570 539.072571,429.598572 526.423950,422.008209 
	C527.982117,428.165771 530.125549,431.907776 535.570435,433.271332 
	C540.567383,434.522675 545.452209,436.249695 550.331482,437.927155 
	C551.951294,438.484039 553.800049,438.968384 555.488953,441.961273 
	C544.680054,441.059784 535.332825,438.318665 525.648010,435.545654 
	C526.921387,445.848511 538.995911,448.076019 542.310425,458.065613 
	C534.501648,455.180542 529.323486,449.988129 524.366028,444.999329 
	C519.435669,440.037689 518.627441,432.174316 513.881714,426.804108 
	C511.900635,428.059601 512.694397,429.355194 512.942566,430.624481 
	C518.332092,458.191772 523.204346,485.864685 526.018616,513.811035 
	C528.906555,542.489197 530.291077,571.272278 527.211243,600.057434 
	C526.857788,603.360779 527.467407,608.146667 523.844421,609.341980 
	C520.050903,610.593567 517.896729,606.280090 515.944336,603.597900 
	C497.898926,578.807739 483.476593,552.452942 480.853577,521.066711 
	C479.980560,510.620636 481.264862,500.822174 487.693573,492.116302 
	C492.620544,485.444061 494.150024,477.714691 494.724457,469.575165 
	C495.532166,458.130554 496.683716,446.705048 497.940582,435.299133 
	C498.758240,427.879028 498.958832,427.902466 492.094116,425.305054 
	C491.170135,424.955475 490.253754,424.585785 488.709320,423.980743 
	C492.919678,440.355347 483.398682,451.169952 474.465637,462.428802 
	C447.884491,495.930389 412.270752,516.733582 374.269287,534.221436 
	C369.975922,536.197205 365.926453,538.935730 360.106506,539.737427 
	C365.282349,527.500183 370.736115,516.199158 376.634949,504.693542 
z"/>
<path fill="#000000" opacity="1.000000" stroke="none" 
	d="
M664.735596,663.630981 
	C664.707886,654.680725 664.831238,646.189392 664.641479,637.705139 
	C664.558044,633.974487 666.012695,632.587463 669.629211,632.814758 
	C673.442383,633.054260 677.294617,632.814636 681.086792,633.203735 
	C685.298096,633.635803 689.436279,634.593018 690.858521,639.511169 
	C692.215210,644.202576 690.985779,648.031128 686.476013,650.951721 
	C690.043091,654.464783 691.209595,658.617859 691.063843,663.256958 
	C690.998840,665.327820 690.677185,666.914307 688.107361,666.834778 
	C685.838440,666.764526 684.890015,665.570007 684.744873,663.378235 
	C684.625061,661.569641 684.543091,659.674438 683.941711,657.997864 
	C682.219238,653.196167 677.938538,653.912231 674.217468,654.104431 
	C670.327881,654.305298 671.601990,657.599426 671.359497,659.877319 
	C671.254333,660.865295 671.349548,661.873291 671.322449,662.871277 
	C671.277100,664.538147 671.429443,666.411865 669.155029,666.737061 
	C667.059998,667.036682 665.049988,666.920166 664.735596,663.630981 
M671.365234,640.987000 
	C671.326660,649.037964 671.531494,649.260132 678.007996,648.760742 
	C681.147217,648.518738 684.060181,647.845032 684.627869,644.152466 
	C685.046326,641.430481 684.018433,638.914856 681.119385,638.505188 
	C677.831055,638.040405 673.770508,634.718933 671.365234,640.987000 
z"/>
</svg>