<svg width="360" height="67" viewBox="0 0 360 67" fill="none" xmlns="http://www.w3.org/2000/svg">
<path d="M21.8299 -0.000198841C25.4312 -0.000198841 28.6132 0.690468 31.3759 2.0718C34.1385 3.4038 36.4325 5.27847 38.2579 7.6958C40.1325 10.0638 41.5385 12.8265 42.4759 15.9838C43.4132 19.0918 43.8819 22.3971 43.8819 25.8998C43.8819 30.6851 43.0432 35.0511 41.3659 38.9978C39.6885 42.8951 37.2219 46.0031 33.9659 48.3218C30.7099 50.6405 26.6645 51.7998 21.8299 51.7998H3.77386C2.73786 51.7998 1.84986 51.4545 1.10986 50.7638C0.369859 50.0238 -0.000140607 49.1111 -0.000140607 48.0258V3.7738C-0.000140607 2.68847 0.369859 1.80047 1.10986 1.1098C1.84986 0.369801 2.73786 -0.000198841 3.77386 -0.000198841H21.8299ZM21.0899 44.6958C24.5925 44.6958 27.4292 43.8325 29.5999 42.1058C31.7705 40.3791 33.3492 38.1098 34.3359 35.2978C35.3719 32.4365 35.8899 29.3038 35.8899 25.8998C35.8899 23.3838 35.5939 21.0158 35.0019 18.7958C34.4592 16.5265 33.5712 14.5285 32.3379 12.8018C31.1539 11.0258 29.6245 9.64447 27.7499 8.6578C25.9245 7.6218 23.7045 7.1038 21.0899 7.1038H7.10386L7.76986 6.4378V45.4358L7.32586 44.6958H21.0899ZM67.9047 52.5398C63.81 52.5398 60.258 51.7011 57.2487 50.0238C54.2394 48.2971 51.896 45.9538 50.2187 42.9938C48.5907 39.9845 47.7767 36.5558 47.7767 32.7078C47.7767 28.3665 48.64 24.6665 50.3667 21.6078C52.1427 18.4998 54.4367 16.1318 57.2487 14.5038C60.0607 12.8265 63.0454 11.9878 66.2027 11.9878C68.62 11.9878 70.914 12.4811 73.0847 13.4678C75.2554 14.4051 77.1794 15.7371 78.8567 17.4638C80.5834 19.1411 81.94 21.1391 82.9267 23.4578C83.9134 25.7271 84.4314 28.2185 84.4807 30.9318C84.4314 31.9185 84.0367 32.7325 83.2967 33.3738C82.5567 34.0151 81.6934 34.3358 80.7067 34.3358H51.9207L50.1447 28.0458H77.9687L76.5627 29.3778V27.5278C76.464 25.8011 75.8967 24.2965 74.8607 23.0138C73.8247 21.6818 72.542 20.6705 71.0127 19.9798C69.4834 19.2398 67.88 18.8698 66.2027 18.8698C64.7227 18.8698 63.292 19.1165 61.9107 19.6098C60.5787 20.0538 59.37 20.7938 58.2847 21.8298C57.2487 22.8658 56.41 24.2471 55.7687 25.9738C55.1767 27.6511 54.8807 29.7478 54.8807 32.2638C54.8807 34.9771 55.448 37.3451 56.5827 39.3678C57.7174 41.3905 59.2467 42.9691 61.1707 44.1038C63.0947 45.1891 65.216 45.7318 67.5347 45.7318C69.36 45.7318 70.8647 45.5591 72.0487 45.2138C73.2327 44.8191 74.2194 44.3505 75.0087 43.8078C75.798 43.2651 76.4887 42.7471 77.0807 42.2538C77.8207 41.8098 78.5607 41.5878 79.3007 41.5878C80.1887 41.5878 80.9287 41.9085 81.5207 42.5498C82.1127 43.1418 82.4087 43.8571 82.4087 44.6958C82.4087 45.7811 81.866 46.7678 80.7807 47.6558C79.4487 48.9385 77.5987 50.0731 75.2307 51.0598C72.912 52.0465 70.47 52.5398 67.9047 52.5398ZM108.015 52.5398C103.92 52.5398 100.368 51.7011 97.359 50.0238C94.3497 48.2971 92.0063 45.9538 90.329 42.9938C88.701 39.9845 87.887 36.5558 87.887 32.7078C87.887 28.3665 88.7503 24.6665 90.477 21.6078C92.253 18.4998 94.547 16.1318 97.359 14.5038C100.171 12.8265 103.156 11.9878 106.313 11.9878C108.73 11.9878 111.024 12.4811 113.195 13.4678C115.366 14.4051 117.29 15.7371 118.967 17.4638C120.694 19.1411 122.05 21.1391 123.037 23.4578C124.024 25.7271 124.542 28.2185 124.591 30.9318C124.542 31.9185 124.147 32.7325 123.407 33.3738C122.667 34.0151 121.804 34.3358 120.817 34.3358H92.031L90.255 28.0458H118.079L116.673 29.3778V27.5278C116.574 25.8011 116.007 24.2965 114.971 23.0138C113.935 21.6818 112.652 20.6705 111.123 19.9798C109.594 19.2398 107.99 18.8698 106.313 18.8698C104.833 18.8698 103.402 19.1165 102.021 19.6098C100.689 20.0538 99.4803 20.7938 98.395 21.8298C97.359 22.8658 96.5203 24.2471 95.879 25.9738C95.287 27.6511 94.991 29.7478 94.991 32.2638C94.991 34.9771 95.5583 37.3451 96.693 39.3678C97.8277 41.3905 99.357 42.9691 101.281 44.1038C103.205 45.1891 105.326 45.7318 107.645 45.7318C109.47 45.7318 110.975 45.5591 112.159 45.2138C113.343 44.8191 114.33 44.3505 115.119 43.8078C115.908 43.2651 116.599 42.7471 117.191 42.2538C117.931 41.8098 118.671 41.5878 119.411 41.5878C120.299 41.5878 121.039 41.9085 121.631 42.5498C122.223 43.1418 122.519 43.8571 122.519 44.6958C122.519 45.7811 121.976 46.7678 120.891 47.6558C119.559 48.9385 117.709 50.0731 115.341 51.0598C113.022 52.0465 110.58 52.5398 108.015 52.5398ZM149.605 12.2098C153.059 12.2098 156.117 13.0731 158.781 14.7998C161.495 16.5265 163.641 18.8945 165.219 21.9038C166.798 24.8638 167.587 28.3171 167.587 32.2638C167.587 36.2105 166.798 39.7131 165.219 42.7718C163.641 45.7811 161.519 48.1491 158.855 49.8758C156.191 51.6025 153.182 52.4658 149.827 52.4658C147.953 52.4658 146.177 52.1698 144.499 51.5778C142.822 50.9858 141.342 50.2211 140.059 49.2838C138.777 48.2971 137.716 47.2611 136.877 46.1758C136.088 45.0905 135.595 44.0791 135.397 43.1418L137.395 42.1798V62.8258C137.395 63.9111 137.025 64.7991 136.285 65.4898C135.595 66.2298 134.731 66.5998 133.695 66.5998C132.61 66.5998 131.722 66.2298 131.031 65.4898C130.341 64.7991 129.995 63.9111 129.995 62.8258V16.5018C129.995 15.4658 130.341 14.5778 131.031 13.8378C131.722 13.0978 132.61 12.7278 133.695 12.7278C134.731 12.7278 135.595 13.0978 136.285 13.8378C137.025 14.5778 137.395 15.4658 137.395 16.5018V21.6078L136.211 20.9418C136.359 20.0045 136.828 19.0425 137.617 18.0558C138.407 17.0198 139.393 16.0578 140.577 15.1698C141.811 14.2818 143.192 13.5665 144.721 13.0238C146.3 12.4811 147.928 12.2098 149.605 12.2098ZM148.791 19.0178C146.423 19.0178 144.351 19.6098 142.575 20.7938C140.849 21.9285 139.492 23.4825 138.505 25.4558C137.519 27.4291 137.025 29.6985 137.025 32.2638C137.025 34.7798 137.519 37.0738 138.505 39.1458C139.492 41.1685 140.849 42.7718 142.575 43.9558C144.351 45.0905 146.423 45.6578 148.791 45.6578C151.11 45.6578 153.133 45.0905 154.859 43.9558C156.586 42.7718 157.943 41.1685 158.929 39.1458C159.965 37.0738 160.483 34.7798 160.483 32.2638C160.483 29.7478 159.965 27.5031 158.929 25.5298C157.943 23.5071 156.586 21.9285 154.859 20.7938C153.133 19.6098 151.11 19.0178 148.791 19.0178ZM187.141 51.7998C185.957 51.7998 184.995 51.4545 184.255 50.7638C183.565 50.0238 183.219 49.1111 183.219 48.0258V3.6998H191.137V48.0258C191.137 49.1111 190.743 50.0238 189.953 50.7638C189.213 51.4545 188.276 51.7998 187.141 51.7998ZM170.343 7.1038C169.307 7.1038 168.419 6.78314 167.679 6.1418C166.939 5.45113 166.569 4.56313 166.569 3.4778C166.569 2.4418 166.939 1.60314 167.679 0.961802C168.419 0.320468 169.307 -0.000198841 170.343 -0.000198841H204.013C205.049 -0.000198841 205.913 0.345134 206.603 1.0358C207.343 1.67713 207.713 2.5158 207.713 3.5518C207.713 4.63714 207.343 5.50047 206.603 6.1418C205.913 6.78314 205.049 7.1038 204.013 7.1038H170.343ZM221.553 52.5398C217.458 52.5398 213.906 51.7011 210.897 50.0238C207.888 48.2971 205.544 45.9538 203.867 42.9938C202.239 39.9845 201.425 36.5558 201.425 32.7078C201.425 28.3665 202.288 24.6665 204.015 21.6078C205.791 18.4998 208.085 16.1318 210.897 14.5038C213.709 12.8265 216.694 11.9878 219.851 11.9878C222.268 11.9878 224.562 12.4811 226.733 13.4678C228.904 14.4051 230.828 15.7371 232.505 17.4638C234.232 19.1411 235.588 21.1391 236.575 23.4578C237.562 25.7271 238.08 28.2185 238.129 30.9318C238.08 31.9185 237.685 32.7325 236.945 33.3738C236.205 34.0151 235.342 34.3358 234.355 34.3358H205.569L203.793 28.0458H231.617L230.211 29.3778V27.5278C230.112 25.8011 229.545 24.2965 228.509 23.0138C227.473 21.6818 226.19 20.6705 224.661 19.9798C223.132 19.2398 221.528 18.8698 219.851 18.8698C218.371 18.8698 216.94 19.1165 215.559 19.6098C214.227 20.0538 213.018 20.7938 211.933 21.8298C210.897 22.8658 210.058 24.2471 209.417 25.9738C208.825 27.6511 208.529 29.7478 208.529 32.2638C208.529 34.9771 209.096 37.3451 210.231 39.3678C211.366 41.3905 212.895 42.9691 214.819 44.1038C216.743 45.1891 218.864 45.7318 221.183 45.7318C223.008 45.7318 224.513 45.5591 225.697 45.2138C226.881 44.8191 227.868 44.3505 228.657 43.8078C229.446 43.2651 230.137 42.7471 230.729 42.2538C231.469 41.8098 232.209 41.5878 232.949 41.5878C233.837 41.5878 234.577 41.9085 235.169 42.5498C235.761 43.1418 236.057 43.8571 236.057 44.6958C236.057 45.7811 235.514 46.7678 234.429 47.6558C233.097 48.9385 231.247 50.0731 228.879 51.0598C226.56 52.0465 224.118 52.5398 221.553 52.5398ZM275.716 12.2838C276.802 12.2838 277.69 12.6538 278.38 13.3938C279.071 14.0845 279.416 14.9725 279.416 16.0578V48.0258C279.416 49.1111 279.071 50.0238 278.38 50.7638C277.69 51.4545 276.802 51.7998 275.716 51.7998C274.68 51.7998 273.792 51.4545 273.052 50.7638C272.362 50.0238 272.016 49.1111 272.016 48.0258V42.6978L273.57 42.9198C273.57 43.8078 273.2 44.7945 272.46 45.8798C271.77 46.9651 270.808 48.0258 269.574 49.0618C268.341 50.0485 266.886 50.8871 265.208 51.5778C263.531 52.2191 261.73 52.5398 259.806 52.5398C256.402 52.5398 253.344 51.6765 250.63 49.9498C247.917 48.1738 245.771 45.7565 244.192 42.6978C242.614 39.6391 241.824 36.1611 241.824 32.2638C241.824 28.2678 242.614 24.7651 244.192 21.7558C245.771 18.6971 247.892 16.3045 250.556 14.5778C253.27 12.8511 256.279 11.9878 259.584 11.9878C261.706 11.9878 263.654 12.3331 265.43 13.0238C267.256 13.7145 268.834 14.6025 270.166 15.6878C271.498 16.7731 272.51 17.9325 273.2 19.1658C273.94 20.3498 274.31 21.4845 274.31 22.5698L272.016 22.7918V16.0578C272.016 15.0218 272.362 14.1338 273.052 13.3938C273.792 12.6538 274.68 12.2838 275.716 12.2838ZM260.62 45.7318C262.939 45.7318 264.986 45.1398 266.762 43.9558C268.538 42.7718 269.92 41.1685 270.906 39.1458C271.893 37.0738 272.386 34.7798 272.386 32.2638C272.386 29.6985 271.893 27.4045 270.906 25.3818C269.92 23.3591 268.538 21.7558 266.762 20.5718C264.986 19.3878 262.939 18.7958 260.62 18.7958C258.351 18.7958 256.328 19.3878 254.552 20.5718C252.826 21.7558 251.444 23.3591 250.408 25.3818C249.422 27.4045 248.928 29.6985 248.928 32.2638C248.928 34.7798 249.422 37.0738 250.408 39.1458C251.444 41.1685 252.826 42.7718 254.552 43.9558C256.328 45.1398 258.351 45.7318 260.62 45.7318ZM306.359 12.2098C310.01 12.2098 312.822 13.1225 314.795 14.9478C316.769 16.7238 318.076 19.1411 318.717 22.1998L317.533 21.8298L318.051 20.6458C318.693 19.3631 319.655 18.0805 320.937 16.7978C322.269 15.4658 323.848 14.3805 325.673 13.5418C327.499 12.6538 329.447 12.2098 331.519 12.2098C334.923 12.2098 337.563 12.9498 339.437 14.4298C341.312 15.8605 342.619 17.8091 343.359 20.2758C344.099 22.6931 344.469 25.4065 344.469 28.4158V48.0258C344.469 49.1111 344.124 50.0238 343.433 50.7638C342.743 51.4545 341.855 51.7998 340.769 51.7998C339.733 51.7998 338.845 51.4545 338.105 50.7638C337.415 50.0238 337.069 49.1111 337.069 48.0258V28.4898C337.069 26.7631 336.823 25.1845 336.329 23.7538C335.885 22.3231 335.071 21.1885 333.887 20.3498C332.753 19.4618 331.174 19.0178 329.151 19.0178C327.227 19.0178 325.501 19.4618 323.971 20.3498C322.491 21.1885 321.332 22.3231 320.493 23.7538C319.655 25.1845 319.235 26.7631 319.235 28.4898V48.0258C319.235 49.1111 318.89 50.0238 318.199 50.7638C317.509 51.4545 316.621 51.7998 315.535 51.7998C314.45 51.7998 313.562 51.4545 312.871 50.7638C312.181 50.0238 311.835 49.1111 311.835 48.0258V28.4158C311.835 26.6891 311.589 25.1105 311.095 23.6798C310.651 22.2491 309.862 21.1145 308.727 20.2758C307.593 19.4371 306.014 19.0178 303.991 19.0178C302.067 19.0178 300.365 19.4371 298.885 20.2758C297.405 21.1145 296.246 22.2491 295.407 23.6798C294.618 25.1105 294.223 26.6891 294.223 28.4158V48.0258C294.223 49.1111 293.853 50.0238 293.113 50.7638C292.423 51.4545 291.559 51.7998 290.523 51.7998C289.438 51.7998 288.55 51.4545 287.859 50.7638C287.169 50.0238 286.823 49.1111 286.823 48.0258V16.6498C286.823 15.5645 287.169 14.6765 287.859 13.9858C288.55 13.2458 289.438 12.8758 290.523 12.8758C291.559 12.8758 292.423 13.2458 293.113 13.9858C293.853 14.6765 294.223 15.5645 294.223 16.6498V21.0158L292.817 21.8298C293.163 20.7445 293.73 19.6345 294.519 18.4998C295.309 17.3651 296.295 16.3291 297.479 15.3918C298.713 14.4545 300.069 13.6898 301.549 13.0978C303.029 12.5058 304.633 12.2098 306.359 12.2098ZM354.677 51.7258C353.444 51.7258 352.482 51.3805 351.791 50.6898C351.15 49.9991 350.829 49.0371 350.829 47.8038V46.4718C350.829 45.2385 351.15 44.2765 351.791 43.5858C352.482 42.8951 353.444 42.5498 354.677 42.5498H355.491C356.725 42.5498 357.662 42.8951 358.303 43.5858C358.945 44.2765 359.265 45.2385 359.265 46.4718V47.8038C359.265 49.0371 358.945 49.9991 358.303 50.6898C357.662 51.3805 356.725 51.7258 355.491 51.7258H354.677Z" fill="black"/>
</svg>
